{
  "asset": {
    "generator": "SOLIDWORKSGLTF",
    "version": "2.0"
  },
  "scene": 0,
  "scenes": [
    {
      "name": "visualize",
      "nodes": [
        0,
        1
      ]
    }
  ],
  "nodes": [
    {
      "matrix": [
        0.8821017870188163,
        0,
        -0.47105884700131806,
        0,
        -0.12706223712726403,
        0.9629338915566621,
        -0.23793593336811816,
        0,
        0.4535985286951734,
        0.26973750293858406,
        0.8494057065231145,
        0,
        20.750620509876004,
        14.731606423637457,
        38.67183252320093,
        1
      ],
      "camera": 0,
      "name": "current camera"
    },
    {
      "children": [
        2,
        9,
        10,
        11,
        37,
        38,
        39,
        40,
        47,
        48,
        49,
        50,
        51,
        52
      ],
      "name": "5.6k 10x4 panels"
    },
    {
      "rotation": [
        -0.49240389466285706,
        0.08682408928871155,
        0.15038374066352844,
        0.8528686761856079
      ],
      "scale": [
        0.9999999403953552,
        0.9999999403953552,
        1
      ],
      "translation": [
        -1.64704167842865,
        4.147929668426514,
        0.3812342882156372
      ],
      "children": [
        3,
        4,
        5,
        6,
        7,
        8
      ],
      "name": "detailed panel array"
    },
    {
      "mesh": 0,
      "name": "470 W Panel-1"
    },
    {
      "translation": [
        -1.9984014443252818e-15,
        -4.440892098500626e-16,
        -3.601720094680786
      ],
      "mesh": 0,
      "name": "470 W Panel-5"
    },
    {
      "translation": [
        1.1456999778747559,
        -4.440892098500626e-16,
        -3.601720094680786
      ],
      "mesh": 0,
      "name": "470 W Panel-6"
    },
    {
      "translation": [
        -1.1102230246251565e-15,
        0,
        -1.800860047340393
      ],
      "mesh": 0,
      "name": "470 W Panel-3"
    },
    {
      "translation": [
        1.1456999778747559,
        -4.440892098500626e-16,
        8.881784197001252e-16
      ],
      "mesh": 0,
      "name": "470 W Panel-2"
    },
    {
      "translation": [
        1.1456999778747559,
        -4.440892098500626e-16,
        -1.800860047340393
      ],
      "mesh": 0,
      "name": "470 W Panel-4"
    },
    {
      "rotation": [
        3.058995538021388e-15,
        0.7071068286895752,
        -3.058995538021388e-15,
        0.7071068286895752
      ],
      "translation": [
        -2.00142502784729,
        0.3860965669155121,
        0.4856128692626953
      ],
      "mesh": 1,
      "name": "Mirrordfw sign1-2"
    },
    {
      "rotation": [
        0.7071068286895752,
        -1.2926412048161451e-15,
        -0.7071068286895752,
        1.2926412048161451e-15
      ],
      "translation": [
        2.0935370922088623,
        3.5422730445861816,
        0.3253619372844696
      ],
      "mesh": 2,
      "name": "HNUT 0.5000-13-D-N-3"
    },
    {
      "children": [
        12,
        13,
        14,
        15,
        16,
        17,
        18,
        19,
        20,
        21,
        22,
        23,
        24,
        25,
        26,
        27,
        28,
        29,
        30,
        31,
        32,
        33,
        34,
        35,
        36
      ],
      "name": "sub-A00031"
    },
    {
      "rotation": [
        0.5,
        0.5,
        -0.5,
        -0.5
      ],
      "translation": [
        -4.85722573273506e-17,
        0.21610000729560852,
        -3.3306690738754696e-16
      ],
      "mesh": 3,
      "name": "JLBE435-WEA14PE SW 2024-1"
    },
    {
      "rotation": [
        0.7071068286895752,
        0,
        0,
        0.7071068286895752
      ],
      "translation": [
        0,
        0.16509999334812164,
        0
      ],
      "mesh": 4,
      "name": "SUB-A00021-1"
    },
    {
      "rotation": [
        0.5,
        0.5,
        0.5,
        0.5
      ],
      "translation": [
        0.038175810128450394,
        0.13529999554157257,
        0.14247405529022217
      ],
      "mesh": 5,
      "name": "HH STRUC BOLT M16 X 2.0 X 80, A325M-69"
    },
    {
      "rotation": [
        0.5609856247901917,
        0.5609855651855469,
        -0.4304593503475189,
        -0.4304593503475189
      ],
      "scale": [
        1,
        0.9999999403953552,
        1
      ],
      "translation": [
        2.060851489460447e-15,
        0.13529999554157257,
        -0.14749999344348907
      ],
      "mesh": 5,
      "name": "HH STRUC BOLT M16 X 2.0 X 80, A325M-103"
    },
    {
      "rotation": [
        -0.3535534143447876,
        -0.3535534143447876,
        0.6123724579811096,
        0.6123725175857544
      ],
      "translation": [
        -0.10429824888706207,
        0.13529999554157257,
        -0.10429824888706207
      ],
      "mesh": 5,
      "name": "HH STRUC BOLT M16 X 2.0 X 80, A325M-100"
    },
    {
      "rotation": [
        0.6830127239227295,
        0.6830126643180847,
        -0.1830126941204071,
        -0.1830126941204071
      ],
      "translation": [
        0.10429824888706207,
        0.13529999554157257,
        -0.10429824888706207
      ],
      "mesh": 5,
      "name": "HH STRUC BOLT M16 X 2.0 X 80, A325M-106"
    },
    {
      "rotation": [
        0.6123725175857544,
        0.6123724579811096,
        -0.3535534143447876,
        -0.3535534143447876
      ],
      "translation": [
        0.038175810128450394,
        0.13529999554157257,
        -0.14247405529022217
      ],
      "mesh": 5,
      "name": "HH STRUC BOLT M16 X 2.0 X 80, A325M-104"
    },
    {
      "rotation": [
        0.5609856247901917,
        0.5609855651855469,
        0.4304593503475189,
        0.4304593503475189
      ],
      "scale": [
        1,
        0.9999999403953552,
        1
      ],
      "translation": [
        0.07374999672174454,
        0.13529999554157257,
        0.12773874402046204
      ],
      "mesh": 5,
      "name": "HH STRUC BOLT M16 X 2.0 X 80, A325M-113"
    },
    {
      "rotation": [
        0.7071068286895752,
        0.7071068286895752,
        3.703275479240847e-15,
        3.703275479240847e-15
      ],
      "translation": [
        0.14247405529022217,
        0.13529999554157257,
        -0.038175810128450394
      ],
      "mesh": 5,
      "name": "HH STRUC BOLT M16 X 2.0 X 80, A325M-108"
    },
    {
      "rotation": [
        0.6532815098762512,
        0.6532815098762512,
        -0.27059805393218994,
        -0.27059805393218994
      ],
      "scale": [
        1,
        0.9999999403953552,
        0.9999999403953552
      ],
      "translation": [
        0.07374999672174454,
        0.13529999554157257,
        -0.12773874402046204
      ],
      "mesh": 5,
      "name": "HH STRUC BOLT M16 X 2.0 X 80, A325M-105"
    },
    {
      "rotation": [
        -0.27059805393218994,
        -0.27059805393218994,
        0.6532815098762512,
        0.6532815098762512
      ],
      "scale": [
        1,
        0.9999999403953552,
        0.9999999403953552
      ],
      "translation": [
        -0.12773874402046204,
        0.13529999554157257,
        -0.07374999672174454
      ],
      "mesh": 5,
      "name": "HH STRUC BOLT M16 X 2.0 X 80, A325M-99"
    },
    {
      "rotation": [
        -0.4304593503475189,
        -0.4304593503475189,
        0.5609855651855469,
        0.5609856247901917
      ],
      "scale": [
        1,
        0.9999999403953552,
        1
      ],
      "translation": [
        -0.07374999672174454,
        0.13529999554157257,
        -0.12773874402046204
      ],
      "mesh": 5,
      "name": "HH STRUC BOLT M16 X 2.0 X 80, A325M-101"
    },
    {
      "rotation": [
        0.7010573744773865,
        0.7010573744773865,
        0.09229595214128494,
        0.09229595214128494
      ],
      "scale": [
        1,
        0.9999999403953552,
        1
      ],
      "translation": [
        0.14749999344348907,
        0.13529999554157257,
        2.581268532253489e-15
      ],
      "mesh": 5,
      "name": "HH STRUC BOLT M16 X 2.0 X 80, A325M-109"
    },
    {
      "rotation": [
        0.5,
        0.5,
        -0.5,
        -0.5
      ],
      "translation": [
        -0.038175810128450394,
        0.13529999554157257,
        -0.14247405529022217
      ],
      "mesh": 5,
      "name": "HH STRUC BOLT M16 X 2.0 X 80, A325M-102"
    },
    {
      "rotation": [
        0.6830127239227295,
        0.6830126643180847,
        0.1830126941204071,
        0.1830126941204071
      ],
      "translation": [
        0.14247405529022217,
        0.13529999554157257,
        0.038175810128450394
      ],
      "mesh": 5,
      "name": "HH STRUC BOLT M16 X 2.0 X 80, A325M-110"
    },
    {
      "rotation": [
        0.6123725175857544,
        0.6123724579811096,
        0.3535534143447876,
        0.3535534143447876
      ],
      "translation": [
        0.10429824888706207,
        0.13529999554157257,
        0.10429824888706207
      ],
      "mesh": 5,
      "name": "HH STRUC BOLT M16 X 2.0 X 80, A325M-112"
    },
    {
      "rotation": [
        0.7010573744773865,
        0.7010573744773865,
        -0.09229595214128494,
        -0.09229595214128494
      ],
      "scale": [
        1,
        0.9999999403953552,
        1
      ],
      "translation": [
        0.12773874402046204,
        0.13529999554157257,
        -0.07374999672174454
      ],
      "mesh": 5,
      "name": "HH STRUC BOLT M16 X 2.0 X 80, A325M-107"
    },
    {
      "rotation": [
        0.6532815098762512,
        0.6532815098762512,
        0.27059805393218994,
        0.27059805393218994
      ],
      "scale": [
        1,
        0.9999999403953552,
        0.9999999403953552
      ],
      "translation": [
        0.12773874402046204,
        0.13529999554157257,
        0.07374999672174454
      ],
      "mesh": 5,
      "name": "HH STRUC BOLT M16 X 2.0 X 80, A325M-111"
    },
    {
      "rotation": [
        0.3535534143447876,
        0.3535534143447876,
        0.6123724579811096,
        0.6123725175857544
      ],
      "translation": [
        -0.038175810128450394,
        0.13529999554157257,
        0.14247405529022217
      ],
      "mesh": 5,
      "name": "HH STRUC BOLT M16 X 2.0 X 80, A325M-92"
    },
    {
      "rotation": [
        -1.2344251597469491e-15,
        -1.2344251597469491e-15,
        0.7071068286895752,
        0.7071068286895752
      ],
      "translation": [
        -0.14247405529022217,
        0.13529999554157257,
        0.038175810128450394
      ],
      "mesh": 5,
      "name": "HH STRUC BOLT M16 X 2.0 X 80, A325M-96"
    },
    {
      "rotation": [
        0.09229595214128494,
        0.09229595214128494,
        0.7010573744773865,
        0.7010573744773865
      ],
      "scale": [
        1,
        0.9999999403953552,
        1
      ],
      "translation": [
        -0.12773874402046204,
        0.13529999554157257,
        0.07374999672174454
      ],
      "mesh": 5,
      "name": "HH STRUC BOLT M16 X 2.0 X 80, A325M-95"
    },
    {
      "rotation": [
        0.27059805393218994,
        0.27059805393218994,
        0.6532815098762512,
        0.6532815098762512
      ],
      "scale": [
        1,
        0.9999999403953552,
        0.9999999403953552
      ],
      "translation": [
        -0.07374999672174454,
        0.13529999554157257,
        0.12773874402046204
      ],
      "mesh": 5,
      "name": "HH STRUC BOLT M16 X 2.0 X 80, A325M-93"
    },
    {
      "rotation": [
        0.1830126941204071,
        0.1830126941204071,
        0.6830126643180847,
        0.6830127239227295
      ],
      "translation": [
        -0.10429824888706207,
        0.13529999554157257,
        0.10429824888706207
      ],
      "mesh": 5,
      "name": "HH STRUC BOLT M16 X 2.0 X 80, A325M-94"
    },
    {
      "rotation": [
        -0.09229595214128494,
        -0.09229595214128494,
        0.7010573744773865,
        0.7010573744773865
      ],
      "scale": [
        1,
        0.9999999403953552,
        1
      ],
      "translation": [
        -0.14749999344348907,
        0.13529999554157257,
        -1.547373340571312e-15
      ],
      "mesh": 5,
      "name": "HH STRUC BOLT M16 X 2.0 X 80, A325M-97"
    },
    {
      "rotation": [
        -0.1830126941204071,
        -0.1830126941204071,
        0.6830126643180847,
        0.6830127239227295
      ],
      "translation": [
        -0.14247405529022217,
        0.13529999554157257,
        -0.038175810128450394
      ],
      "mesh": 5,
      "name": "HH STRUC BOLT M16 X 2.0 X 80, A325M-98"
    },
    {
      "rotation": [
        -0.5,
        0.5,
        -0.5,
        0.5
      ],
      "translation": [
        -0.06364881992340088,
        0.03683000057935715,
        0.1536618322134018
      ],
      "mesh": 6,
      "name": "HHBOLT 1.0000-8x3.5x1.75-N-2"
    },
    {
      "translation": [
        -1.2171258617580397e-16,
        0.27309998869895935,
        -1.1600003180234353e-9
      ],
      "mesh": 7,
      "name": "5.6K Tower 8.6-1"
    },
    {
      "rotation": [
        -0.7071068286895752,
        0,
        0,
        0.7071068286895752
      ],
      "translation": [
        -0.06364881992340088,
        -0.02539999969303608,
        0.1536618322134018
      ],
      "mesh": 8,
      "name": "HH NUT 1-8, A563 GR DH-3"
    },
    {
      "rotation": [
        -0.49240389466285706,
        -0.08682408928871155,
        -0.15038374066352844,
        0.8528686761856079
      ],
      "scale": [
        0.9999999403953552,
        0.9999999403953552,
        1
      ],
      "translation": [
        0.5704358816146851,
        4.343855857849121,
        0.04188007488846779
      ],
      "children": [
        41,
        42,
        43,
        44,
        45,
        46
      ],
      "name": "detailed panel array"
    },
    {
      "mesh": 9,
      "name": "470 W Panel-1"
    },
    {
      "translation": [
        -1.970645868709653e-15,
        -4.440892098500626e-16,
        -3.601720094680786
      ],
      "mesh": 9,
      "name": "470 W Panel-5"
    },
    {
      "translation": [
        1.1456999778747559,
        0,
        -3.601720094680786
      ],
      "mesh": 9,
      "name": "470 W Panel-6"
    },
    {
      "translation": [
        -1.0269562977782698e-15,
        -4.440892098500626e-16,
        -1.800860047340393
      ],
      "mesh": 9,
      "name": "470 W Panel-3"
    },
    {
      "translation": [
        1.1456999778747559,
        -4.440892098500626e-16,
        1.3322676295501878e-15
      ],
      "mesh": 9,
      "name": "470 W Panel-2"
    },
    {
      "translation": [
        1.1456999778747559,
        0,
        -1.800860047340393
      ],
      "mesh": 9,
      "name": "470 W Panel-4"
    },
    {
      "rotation": [
        3.058995538021388e-15,
        0.7071068286895752,
        -3.058995538021388e-15,
        0.7071068286895752
      ],
      "translation": [
        2.00142502784729,
        0.3860965669155121,
        0.4856128692626953
      ],
      "mesh": 1
    },
    {
      "rotation": [
        1.74838272928423e-15,
        2.609024107869118e-15,
        1,
        -4.423806915477795e-30
      ],
      "translation": [
        2.127598524093628,
        2.6289162635803223,
        -0.12678098678588867
      ],
      "mesh": 10,
      "name": "HBOLT 0.3750-16x1.25x1-N-3"
    },
    {
      "rotation": [
        1.74838272928423e-15,
        -2.4424906541753444e-15,
        1,
        4.622157387207298e-30
      ],
      "translation": [
        2.1255664825439453,
        2.6289162635803223,
        0.722423255443573
      ],
      "mesh": 11,
      "name": "HBOLT 0.2500-20x1.125x0.75-N-4"
    },
    {
      "rotation": [
        0.7071068286895752,
        -2.446727581959726e-29,
        -0.7071068286895752,
        2.3706881061733952e-29
      ],
      "translation": [
        2.0931813716888428,
        2.6289162635803223,
        -0.12678098678588867
      ],
      "mesh": 12,
      "name": "HNUT 0.3750-16-D-N-1"
    },
    {
      "rotation": [
        0.7071068286895752,
        1.7663542273261244e-15,
        -0.7071068286895752,
        -1.7663542273261244e-15
      ],
      "translation": [
        2.096000909805298,
        2.6289162635803223,
        0.722423255443573
      ],
      "mesh": 13,
      "name": "HNUT 0.2500-20-D-N-2"
    },
    {
      "rotation": [
        -2.1133380977952964e-15,
        5.551115123125783e-17,
        1,
        4.3260725473355695e-15
      ],
      "translation": [
        2.1300368309020996,
        3.5422730445861816,
        0.3253619372844696
      ],
      "mesh": 14,
      "name": "HBOLT 0.5000-13x1.5x1.25-N-9"
    }
  ],
  "cameras": [
    {
      "type": "orthographic",
      "orthographic": {
        "xmag": 5.744537507105458,
        "ymag": 4.438960800945127,
        "zfar": 54.26159962945128,
        "znear": 41.48919958066651
      }
    }
  ],
  "meshes": [
    {
      "primitives": [
        {
          "attributes": {
            "POSITION": 1,
            "NORMAL": 2
          },
          "indices": 0,
          "material": 0,
          "mode": 4
        },
        {
          "attributes": {
            "POSITION": 4,
            "NORMAL": 5
          },
          "indices": 3,
          "material": 1,
          "mode": 4
        },
        {
          "attributes": {
            "POSITION": 7,
            "NORMAL": 8
          },
          "indices": 6,
          "material": 2,
          "mode": 4
        },
        {
          "attributes": {
            "POSITION": 10,
            "NORMAL": 11
          },
          "indices": 9,
          "material": 3,
          "mode": 4
        },
        {
          "attributes": {
            "POSITION": 13,
            "NORMAL": 14
          },
          "indices": 12,
          "material": 4,
          "mode": 4
        }
      ]
    },
    {
      "primitives": [
        {
          "attributes": {
            "POSITION": 16,
            "NORMAL": 17
          },
          "indices": 15,
          "material": 5,
          "mode": 4
        }
      ]
    },
    {
      "primitives": [
        {
          "attributes": {
            "POSITION": 19,
            "NORMAL": 20
          },
          "indices": 18,
          "material": 6,
          "mode": 4
        }
      ]
    },
    {
      "primitives": [
        {
          "attributes": {
            "POSITION": 22,
            "NORMAL": 23
          },
          "indices": 21,
          "material": 7,
          "mode": 4
        },
        {
          "attributes": {
            "POSITION": 25,
            "NORMAL": 26
          },
          "indices": 24,
          "material": 8,
          "mode": 4
        },
        {
          "attributes": {
            "POSITION": 28,
            "NORMAL": 29
          },
          "indices": 27,
          "material": 9,
          "mode": 4
        },
        {
          "attributes": {
            "POSITION": 31,
            "NORMAL": 32
          },
          "indices": 30,
          "material": 10,
          "mode": 4
        },
        {
          "attributes": {
            "POSITION": 34,
            "NORMAL": 35
          },
          "indices": 33,
          "material": 11,
          "mode": 4
        },
        {
          "attributes": {
            "POSITION": 37,
            "NORMAL": 38
          },
          "indices": 36,
          "material": 12,
          "mode": 4
        }
      ]
    },
    {
      "primitives": [
        {
          "attributes": {
            "POSITION": 40,
            "NORMAL": 41
          },
          "indices": 39,
          "material": 13,
          "mode": 4
        },
        {
          "attributes": {
            "POSITION": 43,
            "NORMAL": 44
          },
          "indices": 42,
          "material": 14,
          "mode": 4
        }
      ]
    },
    {
      "primitives": [
        {
          "attributes": {
            "POSITION": 46,
            "NORMAL": 47
          },
          "indices": 45,
          "material": 6,
          "mode": 4
        }
      ]
    },
    {
      "primitives": [
        {
          "attributes": {
            "POSITION": 49,
            "NORMAL": 50
          },
          "indices": 48,
          "material": 6,
          "mode": 4
        }
      ]
    },
    {
      "primitives": [
        {
          "attributes": {
            "POSITION": 52,
            "NORMAL": 53
          },
          "indices": 51,
          "material": 15,
          "mode": 4
        },
        {
          "attributes": {
            "POSITION": 55,
            "NORMAL": 56
          },
          "indices": 54,
          "material": 16,
          "mode": 4
        },
        {
          "attributes": {
            "POSITION": 58,
            "NORMAL": 59
          },
          "indices": 57,
          "material": 17,
          "mode": 4
        },
        {
          "attributes": {
            "POSITION": 61,
            "NORMAL": 62
          },
          "indices": 60,
          "material": 18,
          "mode": 4
        }
      ]
    },
    {
      "primitives": [
        {
          "attributes": {
            "POSITION": 64,
            "NORMAL": 65
          },
          "indices": 63,
          "material": 6,
          "mode": 4
        }
      ]
    },
    {
      "primitives": [
        {
          "attributes": {
            "POSITION": 67,
            "NORMAL": 68
          },
          "indices": 66,
          "material": 0,
          "mode": 4
        },
        {
          "attributes": {
            "POSITION": 70,
            "NORMAL": 71
          },
          "indices": 69,
          "material": 1,
          "mode": 4
        },
        {
          "attributes": {
            "POSITION": 73,
            "NORMAL": 74
          },
          "indices": 72,
          "material": 2,
          "mode": 4
        },
        {
          "attributes": {
            "POSITION": 76,
            "NORMAL": 77
          },
          "indices": 75,
          "material": 3,
          "mode": 4
        },
        {
          "attributes": {
            "POSITION": 79,
            "NORMAL": 80
          },
          "indices": 78,
          "material": 4,
          "mode": 4
        }
      ]
    },
    {
      "primitives": [
        {
          "attributes": {
            "POSITION": 82,
            "NORMAL": 83
          },
          "indices": 81,
          "material": 6,
          "mode": 4
        }
      ]
    },
    {
      "primitives": [
        {
          "attributes": {
            "POSITION": 85,
            "NORMAL": 86
          },
          "indices": 84,
          "material": 6,
          "mode": 4
        }
      ]
    },
    {
      "primitives": [
        {
          "attributes": {
            "POSITION": 88,
            "NORMAL": 89
          },
          "indices": 87,
          "material": 6,
          "mode": 4
        }
      ]
    },
    {
      "primitives": [
        {
          "attributes": {
            "POSITION": 91,
            "NORMAL": 92
          },
          "indices": 90,
          "material": 6,
          "mode": 4
        }
      ]
    },
    {
      "primitives": [
        {
          "attributes": {
            "POSITION": 94,
            "NORMAL": 95
          },
          "indices": 93,
          "material": 6,
          "mode": 4
        }
      ]
    }
  ],
  "accessors": [
    {
      "bufferView": 0,
      "byteOffset": 0,
      "componentType": 5125,
      "count": 6,
      "type": "SCALAR",
      "min": [
        0
      ],
      "max": [
        3
      ]
    },
    {
      "bufferView": 1,
      "byteOffset": 0,
      "componentType": 5126,
      "count": 4,
      "type": "VEC3",
      "min": [
        -0.5554999709129333,
        0.032999999821186066,
        -0.8894299864768982
      ],
      "max": [
        0.5554999709129333,
        0.032999999821186066,
        0.8894299864768982
      ]
    },
    {
      "bufferView": 2,
      "byteOffset": 0,
      "componentType": 5126,
      "count": 4,
      "type": "VEC3",
      "min": [
        0,
        1,
        0
      ],
      "max": [
        0,
        1,
        0
      ]
    },
    {
      "bufferView": 0,
      "byteOffset": 24,
      "componentType": 5125,
      "count": 4086,
      "type": "SCALAR",
      "min": [
        0
      ],
      "max": [
        2361
      ]
    },
    {
      "bufferView": 1,
      "byteOffset": 48,
      "componentType": 5126,
      "count": 2362,
      "type": "VEC3",
      "min": [
        -0.5554999709129333,
        0.028999999165534973,
        -0.8894299864768982
      ],
      "max": [
        0.5554999709129333,
        0.033254001289606094,
        0.8894299864768982
      ]
    },
    {
      "bufferView": 2,
      "byteOffset": 48,
      "componentType": 5126,
      "count": 2362,
      "type": "VEC3",
      "min": [
        -1,
        -1,
        -1
      ],
      "max": [
        1,
        1,
        1
      ]
    },
    {
      "bufferView": 0,
      "byteOffset": 16368,
      "componentType": 5125,
      "count": 36,
      "type": "SCALAR",
      "min": [
        0
      ],
      "max": [
        23
      ]
    },
    {
      "bufferView": 1,
      "byteOffset": 28392,
      "componentType": 5126,
      "count": 24,
      "type": "VEC3",
      "min": [
        -0.1882150024175644,
        0.032999999821186066,
        -0.8894299864768982
      ],
      "max": [
        0.1882150024175644,
        0.033254001289606094,
        -0.794662594795227
      ]
    },
    {
      "bufferView": 2,
      "byteOffset": 28392,
      "componentType": 5126,
      "count": 24,
      "type": "VEC3",
      "min": [
        -1,
        0,
        0
      ],
      "max": [
        1,
        0,
        3.778442982925207e-16
      ]
    },
    {
      "bufferView": 0,
      "byteOffset": 16512,
      "componentType": 5125,
      "count": 3648,
      "type": "SCALAR",
      "min": [
        0
      ],
      "max": [
        1813
      ]
    },
    {
      "bufferView": 1,
      "byteOffset": 28680,
      "componentType": 5126,
      "count": 1814,
      "type": "VEC3",
      "min": [
        -0.5554999709129333,
        0.032999999821186066,
        -0.8894299864768982
      ],
      "max": [
        0.5554999709129333,
        0.033254001289606094,
        0.8894299864768982
      ]
    },
    {
      "bufferView": 2,
      "byteOffset": 28680,
      "componentType": 5126,
      "count": 1814,
      "type": "VEC3",
      "min": [
        -1,
        -1,
        -1
      ],
      "max": [
        1,
        1,
        1
      ]
    },
    {
      "bufferView": 0,
      "byteOffset": 31104,
      "componentType": 5125,
      "count": 1554,
      "type": "SCALAR",
      "min": [
        0
      ],
      "max": [
        759
      ]
    },
    {
      "bufferView": 1,
      "byteOffset": 50448,
      "componentType": 5126,
      "count": 760,
      "type": "VEC3",
      "min": [
        -0.5665000081062317,
        -4.3884895168457575e-31,
        -0.9004300236701965
      ],
      "max": [
        0.5665000081062317,
        0.03500000014901161,
        0.9004300236701965
      ]
    },
    {
      "bufferView": 2,
      "byteOffset": 50448,
      "componentType": 5126,
      "count": 760,
      "type": "VEC3",
      "min": [
        -1,
        -1,
        -1
      ],
      "max": [
        1,
        1,
        1
      ]
    },
    {
      "bufferView": 3,
      "byteOffset": 0,
      "componentType": 5125,
      "count": 63048,
      "type": "SCALAR",
      "min": [
        0
      ],
      "max": [
        29269
      ]
    },
    {
      "bufferView": 4,
      "byteOffset": 0,
      "componentType": 5126,
      "count": 29270,
      "type": "VEC3",
      "min": [
        -1.548567533493042,
        -0.2374904304742813,
        -0.11936631798744202
      ],
      "max": [
        2.1513354778289795,
        4.444684028625488,
        -0.10031632333993912
      ]
    },
    {
      "bufferView": 5,
      "byteOffset": 0,
      "componentType": 5126,
      "count": 29270,
      "type": "VEC3",
      "min": [
        -1,
        -1,
        -1
      ],
      "max": [
        1,
        1,
        1
      ]
    },
    {
      "bufferView": 6,
      "byteOffset": 0,
      "componentType": 5125,
      "count": 3288,
      "type": "SCALAR",
      "min": [
        0
      ],
      "max": [
        1535
      ]
    },
    {
      "bufferView": 7,
      "byteOffset": 0,
      "componentType": 5126,
      "count": 1536,
      "type": "VEC3",
      "min": [
        -0.009525000117719173,
        -0.010998522862792015,
        -0.011379200033843517
      ],
      "max": [
        0.009525000117719173,
        0.010998522862792015,
        3.469446951953614e-18
      ]
    },
    {
      "bufferView": 8,
      "byteOffset": 0,
      "componentType": 5126,
      "count": 1536,
      "type": "VEC3",
      "min": [
        -1,
        -1,
        -1
      ],
      "max": [
        1,
        1,
        1
      ]
    },
    {
      "bufferView": 9,
      "byteOffset": 0,
      "componentType": 5125,
      "count": 39624,
      "type": "SCALAR",
      "min": [
        0
      ],
      "max": [
        14943
      ]
    },
    {
      "bufferView": 10,
      "byteOffset": 0,
      "componentType": 5126,
      "count": 14944,
      "type": "VEC3",
      "min": [
        -0.04498909041285515,
        -0.28243812918663025,
        -0.22999989986419678
      ],
      "max": [
        0.050999999046325684,
        0.22999989986419678,
        0.22999989986419678
      ]
    },
    {
      "bufferView": 11,
      "byteOffset": 0,
      "componentType": 5126,
      "count": 14944,
      "type": "VEC3",
      "min": [
        -1,
        -1,
        -1
      ],
      "max": [
        1,
        1,
        1
      ]
    },
    {
      "bufferView": 9,
      "byteOffset": 158496,
      "componentType": 5125,
      "count": 33552,
      "type": "SCALAR",
      "min": [
        0
      ],
      "max": [
        15083
      ]
    },
    {
      "bufferView": 10,
      "byteOffset": 179328,
      "componentType": 5126,
      "count": 15084,
      "type": "VEC3",
      "min": [
        -0.008350852876901627,
        -0.3118000030517578,
        -0.13784120976924896
      ],
      "max": [
        0.05530000105500221,
        0.19814418256282806,
        0.13784120976924896
      ]
    },
    {
      "bufferView": 11,
      "byteOffset": 179328,
      "componentType": 5126,
      "count": 15084,
      "type": "VEC3",
      "min": [
        -1,
        -1,
        -1
      ],
      "max": [
        1,
        1,
        1
      ]
    },
    {
      "bufferView": 9,
      "byteOffset": 292704,
      "componentType": 5125,
      "count": 52632,
      "type": "SCALAR",
      "min": [
        0
      ],
      "max": [
        22901
      ]
    },
    {
      "bufferView": 10,
      "byteOffset": 360336,
      "componentType": 5126,
      "count": 22902,
      "type": "VEC3",
      "min": [
        -0.048700001090765,
        -0.2930811643600464,
        -0.2224999964237213
      ],
      "max": [
        0.05700000002980232,
        0.2224999964237213,
        0.2224999964237213
      ]
    },
    {
      "bufferView": 11,
      "byteOffset": 360336,
      "componentType": 5126,
      "count": 22902,
      "type": "VEC3",
      "min": [
        -1,
        -1,
        -1
      ],
      "max": [
        1,
        1,
        1
      ]
    },
    {
      "bufferView": 9,
      "byteOffset": 503232,
      "componentType": 5125,
      "count": 53268,
      "type": "SCALAR",
      "min": [
        0
      ],
      "max": [
        24795
      ]
    },
    {
      "bufferView": 10,
      "byteOffset": 635160,
      "componentType": 5126,
      "count": 24796,
      "type": "VEC3",
      "min": [
        -0.050999999046325684,
        -0.30149999260902405,
        -0.23999999463558197
      ],
      "max": [
        0.05400000140070915,
        0.23999999463558197,
        0.23999999463558197
      ]
    },
    {
      "bufferView": 11,
      "byteOffset": 635160,
      "componentType": 5126,
      "count": 24796,
      "type": "VEC3",
      "min": [
        -1,
        -1,
        -1
      ],
      "max": [
        1,
        1,
        1
      ]
    },
    {
      "bufferView": 9,
      "byteOffset": 716304,
      "componentType": 5125,
      "count": 22020,
      "type": "SCALAR",
      "min": [
        0
      ],
      "max": [
        9573
      ]
    },
    {
      "bufferView": 10,
      "byteOffset": 932712,
      "componentType": 5126,
      "count": 9574,
      "type": "VEC3",
      "min": [
        -0.048500001430511475,
        -0.30149999260902405,
        -0.1899999976158142
      ],
      "max": [
        0.048500001430511475,
        0.12351816147565842,
        0.1979999989271164
      ]
    },
    {
      "bufferView": 11,
      "byteOffset": 932712,
      "componentType": 5126,
      "count": 9574,
      "type": "VEC3",
      "min": [
        -1,
        -1,
        -1
      ],
      "max": [
        1,
        1,
        1
      ]
    },
    {
      "bufferView": 9,
      "byteOffset": 804384,
      "componentType": 5125,
      "count": 53346,
      "type": "SCALAR",
      "min": [
        0
      ],
      "max": [
        23347
      ]
    },
    {
      "bufferView": 10,
      "byteOffset": 1047600,
      "componentType": 5126,
      "count": 23348,
      "type": "VEC3",
      "min": [
        -0.050999999046325684,
        -0.30149999260902405,
        -0.23000000417232513
      ],
      "max": [
        0.05700000002980232,
        0.22946381568908691,
        0.23000000417232513
      ]
    },
    {
      "bufferView": 11,
      "byteOffset": 1047600,
      "componentType": 5126,
      "count": 23348,
      "type": "VEC3",
      "min": [
        -1,
        -1,
        -1
      ],
      "max": [
        1,
        1,
        1
      ]
    },
    {
      "bufferView": 12,
      "byteOffset": 0,
      "componentType": 5125,
      "count": 14160,
      "type": "SCALAR",
      "min": [
        0
      ],
      "max": [
        6399
      ]
    },
    {
      "bufferView": 13,
      "byteOffset": 0,
      "componentType": 5126,
      "count": 6400,
      "type": "VEC3",
      "min": [
        -0.38100001215934753,
        -0.38100001215934753,
        0
      ],
      "max": [
        0.38100001215934753,
        0.38100001215934753,
        0.16509999334812164
      ]
    },
    {
      "bufferView": 14,
      "byteOffset": 0,
      "componentType": 5126,
      "count": 6400,
      "type": "VEC3",
      "min": [
        -1,
        -1,
        -1
      ],
      "max": [
        1,
        1,
        1
      ]
    },
    {
      "bufferView": 12,
      "byteOffset": 56640,
      "componentType": 5125,
      "count": 5280,
      "type": "SCALAR",
      "min": [
        0
      ],
      "max": [
        2235
      ]
    },
    {
      "bufferView": 13,
      "byteOffset": 76800,
      "componentType": 5126,
      "count": 2236,
      "type": "VEC3",
      "min": [
        -0.22859999537467957,
        -0.22859999537467957,
        0.019050000235438347
      ],
      "max": [
        0.22859999537467957,
        0.22859999537467957,
        0.14605000615119934
      ]
    },
    {
      "bufferView": 14,
      "byteOffset": 76800,
      "componentType": 5126,
      "count": 2236,
      "type": "VEC3",
      "min": [
        -1,
        -1,
        -1
      ],
      "max": [
        1,
        1,
        1
      ]
    },
    {
      "bufferView": 15,
      "byteOffset": 0,
      "componentType": 5125,
      "count": 1026,
      "type": "SCALAR",
      "min": [
        0
      ],
      "max": [
        481
      ]
    },
    {
      "bufferView": 16,
      "byteOffset": 0,
      "componentType": 5126,
      "count": 482,
      "type": "VEC3",
      "min": [
        -1.214306433183765e-17,
        -0.015588457696139812,
        -0.013500000350177288
      ],
      "max": [
        0.09075000137090683,
        0.015588457696139812,
        0.013500000350177288
      ]
    },
    {
      "bufferView": 17,
      "byteOffset": 0,
      "componentType": 5126,
      "count": 482,
      "type": "VEC3",
      "min": [
        -1,
        -0.9983081817626953,
        -1
      ],
      "max": [
        1,
        0.9983081817626953,
        1
      ]
    },
    {
      "bufferView": 18,
      "byteOffset": 0,
      "componentType": 5125,
      "count": 1062,
      "type": "SCALAR",
      "min": [
        0
      ],
      "max": [
        497
      ]
    },
    {
      "bufferView": 19,
      "byteOffset": 0,
      "componentType": 5126,
      "count": 498,
      "type": "VEC3",
      "min": [
        -1.0408340855860843e-17,
        -0.02383013255894184,
        -0.020637499168515205
      ],
      "max": [
        0.1066799983382225,
        0.02383013255894184,
        0.020637499168515205
      ]
    },
    {
      "bufferView": 20,
      "byteOffset": 0,
      "componentType": 5126,
      "count": 498,
      "type": "VEC3",
      "min": [
        -1,
        -0.9985334277153015,
        -1
      ],
      "max": [
        1,
        0.9985334277153015,
        1
      ]
    },
    {
      "bufferView": 21,
      "byteOffset": 0,
      "componentType": 5125,
      "count": 90840,
      "type": "SCALAR",
      "min": [
        0
      ],
      "max": [
        39637
      ]
    },
    {
      "bufferView": 22,
      "byteOffset": 0,
      "componentType": 5126,
      "count": 39638,
      "type": "VEC3",
      "min": [
        -2.1112663745880127,
        0,
        -2.136704444885254
      ],
      "max": [
        2.1112663745880127,
        4.628437519073486,
        0.9822882413864136
      ]
    },
    {
      "bufferView": 23,
      "byteOffset": 0,
      "componentType": 5126,
      "count": 39638,
      "type": "VEC3",
      "min": [
        -1,
        -1,
        -1
      ],
      "max": [
        1,
        1,
        1
      ]
    },
    {
      "bufferView": 21,
      "byteOffset": 363360,
      "componentType": 5125,
      "count": 16008,
      "type": "SCALAR",
      "min": [
        0
      ],
      "max": [
        8283
      ]
    },
    {
      "bufferView": 22,
      "byteOffset": 475656,
      "componentType": 5126,
      "count": 8284,
      "type": "VEC3",
      "min": [
        -1.3446124792099,
        0.14178889989852905,
        -1.7384183406829834
      ],
      "max": [
        1.3446124792099,
        4.434112548828125,
        0.768989086151123
      ]
    },
    {
      "bufferView": 23,
      "byteOffset": 475656,
      "componentType": 5126,
      "count": 8284,
      "type": "VEC3",
      "min": [
        -1,
        -1,
        -1
      ],
      "max": [
        1,
        1,
        1
      ]
    },
    {
      "bufferView": 21,
      "byteOffset": 427392,
      "componentType": 5125,
      "count": 1608,
      "type": "SCALAR",
      "min": [
        0
      ],
      "max": [
        705
      ]
    },
    {
      "bufferView": 22,
      "byteOffset": 575064,
      "componentType": 5126,
      "count": 706,
      "type": "VEC3",
      "min": [
        -1.1974520683288574,
        0.5313106775283813,
        -1.42746901512146
      ],
      "max": [
        1.1974520683288574,
        0.573474645614624,
        -0.23433487117290497
      ]
    },
    {
      "bufferView": 23,
      "byteOffset": 575064,
      "componentType": 5126,
      "count": 706,
      "type": "VEC3",
      "min": [
        -0.7733500003814697,
        -1,
        -0.8660253882408142
      ],
      "max": [
        0.7733500003814697,
        1,
        0.7733500003814697
      ]
    },
    {
      "bufferView": 21,
      "byteOffset": 433824,
      "componentType": 5125,
      "count": 39984,
      "type": "SCALAR",
      "min": [
        0
      ],
      "max": [
        18367
      ]
    },
    {
      "bufferView": 22,
      "byteOffset": 583536,
      "componentType": 5126,
      "count": 18368,
      "type": "VEC3",
      "min": [
        -1.3461999893188477,
        0.019050000235438347,
        -1.7105271816253662
      ],
      "max": [
        1.3461999893188477,
        4.633455276489258,
        0.9399139881134033
      ]
    },
    {
      "bufferView": 23,
      "byteOffset": 583536,
      "componentType": 5126,
      "count": 18368,
      "type": "VEC3",
      "min": [
        -1,
        -1,
        -1
      ],
      "max": [
        1,
        1,
        1
      ]
    },
    {
      "bufferView": 24,
      "byteOffset": 0,
      "componentType": 5125,
      "count": 3048,
      "type": "SCALAR",
      "min": [
        0
      ],
      "max": [
        1365
      ]
    },
    {
      "bufferView": 25,
      "byteOffset": 0,
      "componentType": 5126,
      "count": 1366,
      "type": "VEC3",
      "min": [
        -0.020637499168515205,
        -0.02383013255894184,
        -0.025704799219965935
      ],
      "max": [
        0.020637499168515205,
        0.02383013255894184,
        3.469446951953614e-18
      ]
    },
    {
      "bufferView": 26,
      "byteOffset": 0,
      "componentType": 5126,
      "count": 1366,
      "type": "VEC3",
      "min": [
        -1,
        -1,
        -1
      ],
      "max": [
        1,
        1,
        1
      ]
    },
    {
      "bufferView": 27,
      "byteOffset": 0,
      "componentType": 5125,
      "count": 6,
      "type": "SCALAR",
      "min": [
        0
      ],
      "max": [
        3
      ]
    },
    {
      "bufferView": 28,
      "byteOffset": 0,
      "componentType": 5126,
      "count": 4,
      "type": "VEC3",
      "min": [
        -0.5554999709129333,
        0.032999999821186066,
        -0.8894299864768982
      ],
      "max": [
        0.5554999709129333,
        0.032999999821186066,
        0.8894299864768982
      ]
    },
    {
      "bufferView": 29,
      "byteOffset": 0,
      "componentType": 5126,
      "count": 4,
      "type": "VEC3",
      "min": [
        0,
        1,
        0
      ],
      "max": [
        0,
        1,
        0
      ]
    },
    {
      "bufferView": 27,
      "byteOffset": 24,
      "componentType": 5125,
      "count": 4086,
      "type": "SCALAR",
      "min": [
        0
      ],
      "max": [
        2361
      ]
    },
    {
      "bufferView": 28,
      "byteOffset": 48,
      "componentType": 5126,
      "count": 2362,
      "type": "VEC3",
      "min": [
        -0.5554999709129333,
        0.028999999165534973,
        -0.8894299864768982
      ],
      "max": [
        0.5554999709129333,
        0.033254001289606094,
        0.8894299864768982
      ]
    },
    {
      "bufferView": 29,
      "byteOffset": 48,
      "componentType": 5126,
      "count": 2362,
      "type": "VEC3",
      "min": [
        -1,
        -1,
        -1
      ],
      "max": [
        1,
        1,
        1
      ]
    },
    {
      "bufferView": 27,
      "byteOffset": 16368,
      "componentType": 5125,
      "count": 36,
      "type": "SCALAR",
      "min": [
        0
      ],
      "max": [
        23
      ]
    },
    {
      "bufferView": 28,
      "byteOffset": 28392,
      "componentType": 5126,
      "count": 24,
      "type": "VEC3",
      "min": [
        -0.1882150024175644,
        0.032999999821186066,
        -0.8894299864768982
      ],
      "max": [
        0.1882150024175644,
        0.033254001289606094,
        -0.794662594795227
      ]
    },
    {
      "bufferView": 29,
      "byteOffset": 28392,
      "componentType": 5126,
      "count": 24,
      "type": "VEC3",
      "min": [
        -1,
        0,
        0
      ],
      "max": [
        1,
        0,
        3.778442982925207e-16
      ]
    },
    {
      "bufferView": 27,
      "byteOffset": 16512,
      "componentType": 5125,
      "count": 3648,
      "type": "SCALAR",
      "min": [
        0
      ],
      "max": [
        1813
      ]
    },
    {
      "bufferView": 28,
      "byteOffset": 28680,
      "componentType": 5126,
      "count": 1814,
      "type": "VEC3",
      "min": [
        -0.5554999709129333,
        0.032999999821186066,
        -0.8894299864768982
      ],
      "max": [
        0.5554999709129333,
        0.033254001289606094,
        0.8894299864768982
      ]
    },
    {
      "bufferView": 29,
      "byteOffset": 28680,
      "componentType": 5126,
      "count": 1814,
      "type": "VEC3",
      "min": [
        -1,
        -1,
        -1
      ],
      "max": [
        1,
        1,
        1
      ]
    },
    {
      "bufferView": 27,
      "byteOffset": 31104,
      "componentType": 5125,
      "count": 1554,
      "type": "SCALAR",
      "min": [
        0
      ],
      "max": [
        759
      ]
    },
    {
      "bufferView": 28,
      "byteOffset": 50448,
      "componentType": 5126,
      "count": 760,
      "type": "VEC3",
      "min": [
        -0.5665000081062317,
        -4.3884895168457575e-31,
        -0.9004300236701965
      ],
      "max": [
        0.5665000081062317,
        0.03500000014901161,
        0.9004300236701965
      ]
    },
    {
      "bufferView": 29,
      "byteOffset": 50448,
      "componentType": 5126,
      "count": 760,
      "type": "VEC3",
      "min": [
        -1,
        -1,
        -1
      ],
      "max": [
        1,
        1,
        1
      ]
    },
    {
      "bufferView": 30,
      "byteOffset": 0,
      "componentType": 5125,
      "count": 1074,
      "type": "SCALAR",
      "min": [
        0
      ],
      "max": [
        497
      ]
    },
    {
      "bufferView": 31,
      "byteOffset": 0,
      "componentType": 5126,
      "count": 498,
      "type": "VEC3",
      "min": [
        -5.204170427930421e-18,
        -0.008241559378802776,
        -0.007137400098145008
      ],
      "max": [
        0.038557201623916626,
        0.008241559378802776,
        0.007137400098145008
      ]
    },
    {
      "bufferView": 32,
      "byteOffset": 0,
      "componentType": 5126,
      "count": 498,
      "type": "VEC3",
      "min": [
        -1,
        -0.9945219159126282,
        -1
      ],
      "max": [
        1,
        0.9945219159126282,
        1
      ]
    },
    {
      "bufferView": 33,
      "byteOffset": 0,
      "componentType": 5125,
      "count": 1026,
      "type": "SCALAR",
      "min": [
        0
      ],
      "max": [
        483
      ]
    },
    {
      "bufferView": 34,
      "byteOffset": 0,
      "componentType": 5126,
      "count": 484,
      "type": "VEC3",
      "min": [
        -1.0408340855860843e-17,
        -0.006423137150704861,
        -0.005562600214034319
      ],
      "max": [
        0.033350199460983276,
        0.006423137150704861,
        0.005562600214034319
      ]
    },
    {
      "bufferView": 35,
      "byteOffset": 0,
      "componentType": 5126,
      "count": 484,
      "type": "VEC3",
      "min": [
        -1,
        -0.9983081817626953,
        -1
      ],
      "max": [
        1,
        0.9983081817626953,
        1
      ]
    },
    {
      "bufferView": 36,
      "byteOffset": 0,
      "componentType": 5125,
      "count": 3288,
      "type": "SCALAR",
      "min": [
        0
      ],
      "max": [
        1539
      ]
    },
    {
      "bufferView": 37,
      "byteOffset": 0,
      "componentType": 5126,
      "count": 1540,
      "type": "VEC3",
      "min": [
        -0.007137400098145008,
        -0.008241559378802776,
        -0.008559799753129482
      ],
      "max": [
        0.007137400098145008,
        0.008241559378802776,
        5.204170427930421e-18
      ]
    },
    {
      "bufferView": 38,
      "byteOffset": 0,
      "componentType": 5126,
      "count": 1540,
      "type": "VEC3",
      "min": [
        -1,
        -1,
        -1
      ],
      "max": [
        1,
        1,
        1
      ]
    },
    {
      "bufferView": 39,
      "byteOffset": 0,
      "componentType": 5125,
      "count": 3264,
      "type": "SCALAR",
      "min": [
        0
      ],
      "max": [
        1525
      ]
    },
    {
      "bufferView": 40,
      "byteOffset": 0,
      "componentType": 5126,
      "count": 1526,
      "type": "VEC3",
      "min": [
        -0.005556249991059303,
        -0.006415804848074913,
        -0.0057403999380767345
      ],
      "max": [
        0.005556249991059303,
        0.006415804848074913,
        2.5153490401663703e-17
      ]
    },
    {
      "bufferView": 41,
      "byteOffset": 0,
      "componentType": 5126,
      "count": 1526,
      "type": "VEC3",
      "min": [
        -1,
        -0.9987165331840515,
        -1
      ],
      "max": [
        1,
        0.9987165331840515,
        1
      ]
    },
    {
      "bufferView": 42,
      "byteOffset": 0,
      "componentType": 5125,
      "count": 1074,
      "type": "SCALAR",
      "min": [
        0
      ],
      "max": [
        495
      ]
    },
    {
      "bufferView": 43,
      "byteOffset": 0,
      "componentType": 5126,
      "count": 496,
      "type": "VEC3",
      "min": [
        -8.673617379884035e-18,
        -0.010998522862792015,
        -0.009525000117719173
      ],
      "max": [
        0.0473456010222435,
        0.010998522862792015,
        0.009525000117719173
      ]
    },
    {
      "bufferView": 44,
      "byteOffset": 0,
      "componentType": 5126,
      "count": 496,
      "type": "VEC3",
      "min": [
        -1,
        -0.9945219159126282,
        -1
      ],
      "max": [
        1,
        0.9945219159126282,
        1
      ]
    }
  ],
  "materials": [
    {
      "name": "blackcarpaint",
      "pbrMetallicRoughness": {
        "baseColorFactor": [
          0.00017512399113792898,
          0.00017512399113792898,
          0.00017512399113792898,
          1
        ],
        "metallicFactor": 0,
        "roughnessFactor": 0.1300000011920929
      }
    },
    {
      "name": "polishedsilver",
      "pbrMetallicRoughness": {
        "baseColorFactor": [
          0.23489528791762052,
          0.2468004483686562,
          0.26735808898200775,
          1
        ],
        "metallicFactor": 1,
        "roughnessFactor": 0.07999999523162843
      }
    },
    {
      "name": "polishedsilver",
      "pbrMetallicRoughness": {
        "baseColorFactor": [
          0.23489528791762052,
          0.2468004483686562,
          0.26735808898200775,
          1
        ],
        "metallicFactor": 1,
        "roughnessFactor": 0.07999999523162843
      }
    },
    {
      "name": "polishedsilver",
      "pbrMetallicRoughness": {
        "baseColorFactor": [
          0.23489528791762052,
          0.2468004483686562,
          0.26735808898200775,
          1
        ],
        "metallicFactor": 1,
        "roughnessFactor": 0.07999999523162843
      }
    },
    {
      "name": "satinfinishaluminum",
      "pbrMetallicRoughness": {
        "baseColorFactor": [
          0.21951974663564947,
          0.21951974663564947,
          0.21951974663564947,
          1
        ],
        "metallicFactor": 1,
        "roughnessFactor": 0.4000000059604645
      }
    },
    {
      "name": "mattealuminum",
      "pbrMetallicRoughness": {
        "baseColorFactor": [
          0,
          0,
          0,
          1
        ],
        "metallicFactor": 1,
        "roughnessFactor": 0.5
      }
    },
    {
      "name": "satinfinishstainlesssteel",
      "pbrMetallicRoughness": {
        "baseColorFactor": [
          1,
          0.8912620430916338,
          0.8122415004576116,
          1
        ],
        "metallicFactor": 1,
        "roughnessFactor": 0.4000000059604645
      }
    },
    {
      "name": "defaultplastic",
      "pbrMetallicRoughness": {
        "baseColorFactor": [
          0.04777575977207177,
          0.04777575977207177,
          0.04777575977207177,
          1
        ],
        "metallicFactor": 0,
        "roughnessFactor": 0.15999999940395357
      }
    },
    {
      "name": "defaultplastic",
      "pbrMetallicRoughness": {
        "baseColorFactor": [
          0.4704402705251081,
          0.43681277998520635,
          0.4045408495625616,
          1
        ],
        "metallicFactor": 0,
        "roughnessFactor": 0.17999999970197678
      }
    },
    {
      "name": "defaultplastic",
      "pbrMetallicRoughness": {
        "baseColorFactor": [
          0.5356416323624177,
          0.5356416323624177,
          0.5356416323624177,
          1
        ],
        "metallicFactor": 0,
        "roughnessFactor": 0.15999999940395357
      }
    },
    {
      "name": "defaultplastic",
      "pbrMetallicRoughness": {
        "baseColorFactor": [
          0.08919351271022996,
          0.21951974663564947,
          0.5542271101279068,
          1
        ],
        "metallicFactor": 0,
        "roughnessFactor": 0.15999999940395357
      }
    },
    {
      "name": "defaultplastic",
      "pbrMetallicRoughness": {
        "baseColorFactor": [
          1,
          0.8912620430916338,
          0.8122415004576116,
          1
        ],
        "metallicFactor": 0,
        "roughnessFactor": 0.15999999940395357
      }
    },
    {
      "name": "defaultplastic",
      "pbrMetallicRoughness": {
        "baseColorFactor": [
          1,
          1,
          1,
          1
        ],
        "metallicFactor": 0,
        "roughnessFactor": 0.15999999940395357
      }
    },
    {
      "name": "PlasticPolystyrene",
      "pbrMetallicRoughness": {
        "baseColorFactor": [
          0.4534565012079905,
          0.4534565012079905,
          0.4534565012079905,
          1
        ],
        "metallicFactor": 0,
        "roughnessFactor": 1
      }
    },
    {
      "name": "defaultplastic",
      "pbrMetallicRoughness": {
        "baseColorFactor": [
          1,
          1,
          1,
          1
        ],
        "metallicFactor": 0,
        "roughnessFactor": 0.16999999880790712
      }
    },
    {
      "name": "defaultplastic",
      "pbrMetallicRoughness": {
        "baseColorFactor": [
          0.4534565012079905,
          0.4534565012079905,
          0.4534565012079905,
          1
        ],
        "metallicFactor": 0,
        "roughnessFactor": 0.16999999880790712
      }
    },
    {
      "name": "defaultplastic",
      "pbrMetallicRoughness": {
        "baseColorFactor": [
          0.7299189080773666,
          0.8122415004576116,
          1,
          1
        ],
        "metallicFactor": 0,
        "roughnessFactor": 0.16999999880790712
      }
    },
    {
      "name": "defaultplastic",
      "pbrMetallicRoughness": {
        "baseColorFactor": [
          1,
          1,
          1,
          1
        ],
        "metallicFactor": 0,
        "roughnessFactor": 0.16999999880790712
      }
    },
    {
      "name": "defaultplastic",
      "pbrMetallicRoughness": {
        "baseColorFactor": [
          1,
          1,
          1,
          1
        ],
        "metallicFactor": 0,
        "roughnessFactor": 0.16999999880790712
      }
    }
  ],
  "bufferViews": [
    {
      "buffer": 0,
      "byteOffset": 0,
      "byteLength": 37320,
      "target": 34963
    },
    {
      "buffer": 0,
      "byteOffset": 37320,
      "byteLength": 59568,
      "byteStride": 12,
      "target": 34962
    },
    {
      "buffer": 0,
      "byteOffset": 96888,
      "byteLength": 59568,
      "byteStride": 12,
      "target": 34962
    },
    {
      "buffer": 1,
      "byteOffset": 0,
      "byteLength": 252192,
      "target": 34963
    },
    {
      "buffer": 1,
      "byteOffset": 252192,
      "byteLength": 351240,
      "byteStride": 12,
      "target": 34962
    },
    {
      "buffer": 1,
      "byteOffset": 603432,
      "byteLength": 351240,
      "byteStride": 12,
      "target": 34962
    },
    {
      "buffer": 2,
      "byteOffset": 0,
      "byteLength": 13152,
      "target": 34963
    },
    {
      "buffer": 2,
      "byteOffset": 13152,
      "byteLength": 18432,
      "byteStride": 12,
      "target": 34962
    },
    {
      "buffer": 2,
      "byteOffset": 31584,
      "byteLength": 18432,
      "byteStride": 12,
      "target": 34962
    },
    {
      "buffer": 3,
      "byteOffset": 0,
      "byteLength": 1017768,
      "target": 34963
    },
    {
      "buffer": 3,
      "byteOffset": 1017768,
      "byteLength": 1327776,
      "byteStride": 12,
      "target": 34962
    },
    {
      "buffer": 3,
      "byteOffset": 2345544,
      "byteLength": 1327776,
      "byteStride": 12,
      "target": 34962
    },
    {
      "buffer": 4,
      "byteOffset": 0,
      "byteLength": 77760,
      "target": 34963
    },
    {
      "buffer": 4,
      "byteOffset": 77760,
      "byteLength": 103632,
      "byteStride": 12,
      "target": 34962
    },
    {
      "buffer": 4,
      "byteOffset": 181392,
      "byteLength": 103632,
      "byteStride": 12,
      "target": 34962
    },
    {
      "buffer": 5,
      "byteOffset": 0,
      "byteLength": 4104,
      "target": 34963
    },
    {
      "buffer": 5,
      "byteOffset": 4104,
      "byteLength": 5784,
      "byteStride": 12,
      "target": 34962
    },
    {
      "buffer": 5,
      "byteOffset": 9888,
      "byteLength": 5784,
      "byteStride": 12,
      "target": 34962
    },
    {
      "buffer": 6,
      "byteOffset": 0,
      "byteLength": 4248,
      "target": 34963
    },
    {
      "buffer": 6,
      "byteOffset": 4248,
      "byteLength": 5976,
      "byteStride": 12,
      "target": 34962
    },
    {
      "buffer": 6,
      "byteOffset": 10224,
      "byteLength": 5976,
      "byteStride": 12,
      "target": 34962
    },
    {
      "buffer": 7,
      "byteOffset": 0,
      "byteLength": 593760,
      "target": 34963
    },
    {
      "buffer": 7,
      "byteOffset": 593760,
      "byteLength": 803952,
      "byteStride": 12,
      "target": 34962
    },
    {
      "buffer": 7,
      "byteOffset": 1397712,
      "byteLength": 803952,
      "byteStride": 12,
      "target": 34962
    },
    {
      "buffer": 8,
      "byteOffset": 0,
      "byteLength": 12192,
      "target": 34963
    },
    {
      "buffer": 8,
      "byteOffset": 12192,
      "byteLength": 16392,
      "byteStride": 12,
      "target": 34962
    },
    {
      "buffer": 8,
      "byteOffset": 28584,
      "byteLength": 16392,
      "byteStride": 12,
      "target": 34962
    },
    {
      "buffer": 9,
      "byteOffset": 0,
      "byteLength": 37320,
      "target": 34963
    },
    {
      "buffer": 9,
      "byteOffset": 37320,
      "byteLength": 59568,
      "byteStride": 12,
      "target": 34962
    },
    {
      "buffer": 9,
      "byteOffset": 96888,
      "byteLength": 59568,
      "byteStride": 12,
      "target": 34962
    },
    {
      "buffer": 10,
      "byteOffset": 0,
      "byteLength": 4296,
      "target": 34963
    },
    {
      "buffer": 10,
      "byteOffset": 4296,
      "byteLength": 5976,
      "byteStride": 12,
      "target": 34962
    },
    {
      "buffer": 10,
      "byteOffset": 10272,
      "byteLength": 5976,
      "byteStride": 12,
      "target": 34962
    },
    {
      "buffer": 11,
      "byteOffset": 0,
      "byteLength": 4104,
      "target": 34963
    },
    {
      "buffer": 11,
      "byteOffset": 4104,
      "byteLength": 5808,
      "byteStride": 12,
      "target": 34962
    },
    {
      "buffer": 11,
      "byteOffset": 9912,
      "byteLength": 5808,
      "byteStride": 12,
      "target": 34962
    },
    {
      "buffer": 12,
      "byteOffset": 0,
      "byteLength": 13152,
      "target": 34963
    },
    {
      "buffer": 12,
      "byteOffset": 13152,
      "byteLength": 18480,
      "byteStride": 12,
      "target": 34962
    },
    {
      "buffer": 12,
      "byteOffset": 31632,
      "byteLength": 18480,
      "byteStride": 12,
      "target": 34962
    },
    {
      "buffer": 13,
      "byteOffset": 0,
      "byteLength": 13056,
      "target": 34963
    },
    {
      "buffer": 13,
      "byteOffset": 13056,
      "byteLength": 18312,
      "byteStride": 12,
      "target": 34962
    },
    {
      "buffer": 13,
      "byteOffset": 31368,
      "byteLength": 18312,
      "byteStride": 12,
      "target": 34962
    },
    {
      "buffer": 14,
      "byteOffset": 0,
      "byteLength": 4296,
      "target": 34963
    },
    {
      "buffer": 14,
      "byteOffset": 4296,
      "byteLength": 5952,
      "byteStride": 12,
      "target": 34962
    },
    {
      "buffer": 14,
      "byteOffset": 10248,
      "byteLength": 5952,
      "byteStride": 12,
      "target": 34962
    }
  ],
  "buffers": [
    {
      "uri": "1-1-470_W_Panel-1.bin",
      "byteLength": 156456
    },
    {
      "uri": "1-7-Mirrordfw_sign1-2.bin",
      "byteLength": 954672
    },
    {
      "uri": "1-8-HNUT_0.5000-13-D-N-3.bin",
      "byteLength": 50016
    },
    {
      "uri": "2-9-JLBE435-WEA14PE_SW_2024-1.bin",
      "byteLength": 3673320
    },
    {
      "uri": "2-10-SUB-A00021-1.bin",
      "byteLength": 285024
    },
    {
      "uri": "2-11-HH_STRUC_BOLT_M16_X_2.0_X_80,_A325M-69.bin",
      "byteLength": 15672
    },
    {
      "uri": "2-34-HHBOLT_1.0000-8x3.5x1.75-N-2.bin",
      "byteLength": 16200
    },
    {
      "uri": "2-35-5.6K_Tower_8.6-1.bin",
      "byteLength": 2201664
    },
    {
      "uri": "2-36-HH_NUT_1-8,_A563_GR_DH-3.bin",
      "byteLength": 44976
    },
    {
      "uri": "3-37-470_W_Panel-1.bin",
      "byteLength": 156456
    },
    {
      "uri": "3-44-HBOLT_0.3750-16x1.25x1-N-3.bin",
      "byteLength": 16248
    },
    {
      "uri": "3-45-HBOLT_0.2500-20x1.125x0.75-N-4.bin",
      "byteLength": 15720
    },
    {
      "uri": "3-46-HNUT_0.3750-16-D-N-1.bin",
      "byteLength": 50112
    },
    {
      "uri": "3-47-HNUT_0.2500-20-D-N-2.bin",
      "byteLength": 49680
    },
    {
      "uri": "3-48-HBOLT_0.5000-13x1.5x1.25-N-9.bin",
      "byteLength": 16200
    }
  ]
}