<?xml version="1.0" encoding="UTF-8" standalone="no"?>
<!-- Created with Inkscape (http://www.inkscape.org/) -->

<svg
   width="69.776222mm"
   height="189.49139mm"
   viewBox="0 0 69.776222 189.49139"
   version="1.1"
   id="svg1"
   inkscape:version="1.3.2 (091e20ef0f, 2023-11-25)"
   sodipodi:docname="thermometer.svg"
   xmlns:inkscape="http://www.inkscape.org/namespaces/inkscape"
   xmlns:sodipodi="http://sodipodi.sourceforge.net/DTD/sodipodi-0.dtd"
   xmlns:xlink="http://www.w3.org/1999/xlink"
   xmlns="http://www.w3.org/2000/svg"
   xmlns:svg="http://www.w3.org/2000/svg">
  <sodipodi:namedview
     id="namedview1"
     pagecolor="#ffffff"
     bordercolor="#000000"
     borderopacity="0.25"
     inkscape:showpageshadow="2"
     inkscape:pageopacity="0.0"
     inkscape:pagecheckerboard="true"
     inkscape:deskcolor="#d1d1d1"
     inkscape:document-units="mm"
     inkscape:zoom="0.70822811"
     inkscape:cx="212.50215"
     inkscape:cy="372.05527"
     inkscape:window-width="1920"
     inkscape:window-height="1043"
     inkscape:window-x="0"
     inkscape:window-y="0"
     inkscape:window-maximized="1"
     inkscape:current-layer="layer1" />
  <defs
     id="defs1">
    <linearGradient
       id="linearGradient2"
       inkscape:collect="always">
      <stop
         style="stop-color:#1f4df3;stop-opacity:1;"
         offset="0"
         id="stop2" />
      <stop
         style="stop-color:#ff0000;stop-opacity:0.48999983;"
         offset="1"
         id="stop3" />
    </linearGradient>
    <linearGradient
       inkscape:collect="always"
       xlink:href="#linearGradient2"
       id="linearGradient3"
       x1="86.826668"
       y1="201.14127"
       x2="86.166084"
       y2="31.585926"
       gradientUnits="userSpaceOnUse"
       gradientTransform="matrix(0.6921841,0,0,0.70238741,26.690831,49.785885)" />
  </defs>
  <g
     inkscape:label="Layer 1"
     inkscape:groupmode="layer"
     id="layer1"
     transform="translate(-50.983907,-14.741675)">
    <path
       id="rect1"
       style="fill:#ffffff;stroke:#000000;stroke-width:2;stroke-linejoin:round;stroke-dasharray:none;fill-opacity:1"
       d="m 86.473275,15.741675 a 13.872111,13.872111 0 0 0 -13.872539,13.872021 13.872111,13.872111 0 0 0 0.02532,0.353467 H 72.38938 V 138.29698 A 33.888237,33.888237 0 0 0 51.983907,169.3447 33.888237,33.888237 0 0 0 85.871761,203.23307 33.888237,33.888237 0 0 0 119.76013,169.3447 33.888237,33.888237 0 0 0 100.43418,138.74709 V 29.967163 h -0.11421 a 13.872111,13.872111 0 0 0 0.0253,-0.353467 13.872111,13.872111 0 0 0 -13.872025,-13.872021 z" />
    <path
       style="fill:url(#linearGradient3);stroke:#000000;stroke-width:2;stroke-linejoin:round;stroke-dasharray:none"
       d="m 86.366438,72.494396 a 8.6021414,8.7289433 0 0 0 -8.602399,8.728888 8.6021414,8.7289433 0 0 0 0.01569,0.222417 H 77.632975 V 149.61158 A 21.014207,21.323972 0 0 0 64.97948,169.14818 21.014207,21.323972 0 0 0 85.993446,190.47223 21.014207,21.323972 0 0 0 107.00773,169.14818 21.014207,21.323972 0 0 0 95.02364,149.8948 V 81.445701 h -0.07077 a 8.6021414,8.7289433 0 0 0 0.01569,-0.222417 8.6021414,8.7289433 0 0 0 -8.602088,-8.728888 z"
       id="rect1-5" />
    <rect
       style="fill:#000000;fill-opacity:1;stroke:#000000;stroke-width:2;stroke-linejoin:round;stroke-dasharray:none"
       id="rect3"
       width="14.519755"
       height="4.3994746"
       x="100.59505"
       y="41.887604"
       ry="0" />
    <rect
       style="fill:#000000;fill-opacity:1;stroke:#000000;stroke-width:2;stroke-linejoin:round;stroke-dasharray:none"
       id="rect3-8"
       width="8.7552166"
       height="4.6018505"
       x="101.05551"
       y="58.986729" />
    <rect
       style="fill:#000000;fill-opacity:1;stroke:#000000;stroke-width:2;stroke-linejoin:round;stroke-dasharray:none"
       id="rect3-8-6"
       width="14.092552"
       height="4.2586193"
       x="101.22707"
       y="76.091682" />
    <rect
       style="fill:#000000;fill-opacity:1;stroke:#000000;stroke-width:2;stroke-linejoin:round;stroke-dasharray:none"
       id="rect3-8-6-3"
       width="9.6529198"
       height="4.5357666"
       x="101.08855"
       y="94.209366" />
    <rect
       style="fill:#000000;fill-opacity:1;stroke:#000000;stroke-width:2;stroke-linejoin:round;stroke-dasharray:none"
       id="rect3-8-6-3-7"
       width="14.092552"
       height="4.2586193"
       x="101.49165"
       y="112.86877" />
  </g>
</svg>
